<svg xmlns="http://www.w3.org/2000/svg" width="240" height="300" viewBox="0 0 240 300">
    <rect width="100%" height="100%" fill="#DDDDDD" />
    <path fill="#999999"
        d="M61.88 152.73q.29 0 .51.22l1.38 1.49q-1.14 1.42-2.81 2.17-1.68.76-4.02.76-2.09 0-3.76-.72-1.67-.71-2.85-1.99-1.19-1.27-1.82-3.04-.63-1.77-.63-3.86 0-2.12.68-3.88.68-1.76 1.9-3.04 1.23-1.27 2.94-1.98 1.7-.71 3.77-.71 2.05 0 3.64.68 1.59.68 2.71 1.77l-1.17 1.62q-.1.16-.26.28-.17.11-.45.11-.2 0-.41-.11-.2-.11-.45-.27-.25-.16-.57-.36-.33-.19-.76-.36-.43-.16-.99-.27-.57-.11-1.31-.11-1.26 0-2.3.45-1.05.45-1.81 1.3-.75.85-1.17 2.08-.41 1.23-.41 2.8 0 1.59.45 2.82.45 1.24 1.21 2.08.77.85 1.81 1.3 1.04.44 2.24.44.71 0 1.29-.07.58-.08 1.06-.25.49-.17.93-.44.43-.26.86-.65.13-.12.28-.19.14-.07.29-.07Zm9.69-9.12q1.48 0 2.7.48 1.21.49 2.08 1.37.86.88 1.33 2.16.47 1.27.47 2.84 0 1.59-.47 2.86-.47 1.28-1.33 2.18-.87.89-2.08 1.37-1.22.49-2.7.49-1.5 0-2.72-.49-1.22-.48-2.08-1.37-.87-.9-1.34-2.18-.48-1.27-.48-2.86 0-1.57.48-2.84.47-1.28 1.34-2.16.86-.88 2.08-1.37 1.22-.48 2.72-.48Zm0 11.27q1.66 0 2.46-1.11.8-1.12.8-3.28 0-2.16-.8-3.29t-2.46-1.13q-1.69 0-2.5 1.14-.82 1.14-.82 3.28 0 2.15.82 3.27.81 1.12 2.5 1.12Zm18.52-11.06h2.54l-5.29 13.34h-2.91l-5.29-13.34h2.65q.36 0 .6.17t.32.43l2.57 7.12q.21.63.37 1.23.15.59.27 1.19.13-.6.29-1.19.15-.6.37-1.23l2.63-7.12q.09-.26.33-.43.23-.17.55-.17Zm6.78 5.14h6.06q0-.63-.18-1.18-.18-.55-.53-.97-.35-.41-.89-.65-.54-.25-1.25-.25-1.39 0-2.19.8-.8.79-1.02 2.25Zm8.19 1.93H96.8q.08 1.03.37 1.78.28.75.75 1.23.47.49 1.11.73.65.24 1.43.24.78 0 1.34-.18.57-.18.99-.4.42-.22.74-.41.32-.18.62-.18.4 0 .6.3l.92 1.17q-.53.62-1.2 1.05-.66.42-1.38.67-.72.26-1.47.36-.75.11-1.45.11-1.39 0-2.59-.47-1.19-.46-2.08-1.36-.88-.91-1.39-2.24-.51-1.33-.51-3.09 0-1.36.45-2.56.44-1.21 1.26-2.1.83-.89 2.02-1.41 1.19-.52 2.68-.52 1.26 0 2.33.41 1.07.4 1.83 1.17.77.78 1.21 1.9.43 1.13.43 2.57 0 .73-.15.98-.16.25-.6.25Zm5.99-6.26.2 1.51q.62-1.2 1.48-1.88.86-.69 2.03-.69.92 0 1.48.41l-.21 2.4q-.07.24-.19.33-.12.1-.33.1-.2 0-.58-.06-.38-.07-.75-.07-.53 0-.95.16-.41.15-.74.45-.33.29-.59.7-.25.42-.47.95v8.22h-3.21v-13.34h1.88q.5 0 .69.18.2.17.26.63Zm17.2-6.27v18.8h-3.51v-18.8h3.51Zm6.9 18.8h-3.21v-13.34h1.96q.63 0 .82.59l.21.98q.35-.39.74-.71.38-.33.81-.56.44-.23.94-.37.5-.14 1.1-.14 1.26 0 2.07.69.82.68 1.22 1.81.31-.66.78-1.14.47-.47 1.03-.77.55-.3 1.18-.44.64-.15 1.27-.15 1.11 0 1.97.34.85.34 1.44.99.58.65.89 1.59.3.93.3 2.14v8.49h-3.21v-8.49q0-1.27-.56-1.92-.55-.64-1.63-.64-.5 0-.92.17-.42.17-.74.49-.32.31-.5.8-.18.48-.18 1.1v8.49h-3.23v-8.49q0-1.34-.54-1.95-.54-.61-1.58-.61-.7 0-1.3.34-.61.35-1.13.95v9.76Zm25.61-3.45v-2.24q-1.39.06-2.34.24-.95.17-1.52.44-.57.28-.82.64-.24.37-.24.79 0 .85.5 1.21.5.37 1.3.37.99 0 1.71-.36t1.41-1.09Zm-6.78-7-.58-1.03q2.31-2.11 5.54-2.11 1.17 0 2.1.39.92.38 1.56 1.06.63.69.96 1.64.34.94.34 2.08v8.42h-1.46q-.46 0-.7-.14-.25-.13-.39-.55l-.29-.96q-.51.45-.99.8-.48.34-1 .58-.52.23-1.11.35-.59.13-1.31.13-.84 0-1.56-.23-.71-.23-1.23-.68-.52-.46-.81-1.13-.28-.68-.28-1.58 0-.5.17-1t.55-.96q.38-.45.99-.86.61-.4 1.51-.7.89-.3 2.07-.49 1.18-.19 2.7-.22v-.78q0-1.34-.57-1.99-.57-.64-1.65-.64-.78 0-1.29.18-.52.18-.91.41-.39.23-.71.41-.31.18-.7.18-.34 0-.58-.17-.23-.18-.37-.41Zm17.81 3.46q.59 0 1.04-.17.44-.16.73-.45.29-.28.44-.68.15-.41.15-.89 0-.99-.59-1.56-.59-.58-1.77-.58-1.19 0-1.78.58-.59.57-.59 1.56 0 .47.15.87.15.41.44.7.29.29.74.45.45.17 1.04.17Zm3.62 7.59q0-.39-.23-.64t-.64-.38q-.4-.14-.94-.2-.54-.07-1.14-.1l-1.25-.06q-.65-.03-1.26-.1-.53.29-.86.7-.33.4-.33.93 0 .36.17.66.18.31.56.53.39.22 1 .34.61.13 1.49.13.9 0 1.55-.14t1.07-.38q.42-.24.62-.57.19-.33.19-.72Zm-.63-13.48h3.83v1.19q0 .57-.69.7l-1.19.23q.27.68.27 1.5 0 .99-.4 1.79-.39.8-1.1 1.36-.7.56-1.65.86-.96.31-2.06.31-.39 0-.76-.04-.36-.04-.71-.1-.63.37-.63.84 0 .4.37.59.37.19.99.27.61.08 1.39.1.78.02 1.6.08.81.07 1.59.23t1.4.51q.61.35.98.96.37.6.37 1.55 0 .89-.44 1.72-.43.83-1.26 1.48-.82.65-2.03 1.05-1.2.39-2.73.39-1.51 0-2.63-.29-1.12-.29-1.86-.78-.74-.49-1.1-1.12-.37-.64-.37-1.33 0-.94.57-1.57.56-.63 1.55-1-.53-.28-.84-.73-.32-.46-.32-1.2 0-.3.12-.62.11-.31.32-.63.21-.31.54-.59.32-.28.77-.5-1.02-.54-1.6-1.45-.57-.91-.57-2.14 0-.98.39-1.78.4-.8 1.11-1.37.71-.56 1.67-.86.97-.3 2.12-.3.85 0 1.61.17.75.18 1.38.52Zm8.39 4.68h6.06q0-.63-.17-1.18-.18-.55-.53-.97-.35-.41-.89-.65-.54-.25-1.25-.25-1.4 0-2.2.8-.79.79-1.02 2.25Zm8.19 1.93h-8.25q.08 1.03.36 1.78.29.75.76 1.23.47.49 1.11.73.64.24 1.42.24.78 0 1.35-.18.56-.18.99-.4.42-.22.74-.41.32-.18.61-.18.41 0 .6.3l.93 1.17q-.54.62-1.2 1.05-.66.42-1.39.67-.72.26-1.46.36-.75.11-1.45.11-1.39 0-2.59-.47-1.2-.46-2.08-1.36-.88-.91-1.39-2.24-.51-1.33-.51-3.09 0-1.36.44-2.56.45-1.21 1.27-2.1.83-.89 2.02-1.41 1.19-.52 2.68-.52 1.26 0 2.33.41 1.06.4 1.83 1.17.77.78 1.2 1.9.44 1.13.44 2.57 0 .73-.16.98-.15.25-.6.25Z" />

    <rect xmlns="http://www.w3.org/2000/svg" width="100%" height="100%" fill="#DDDDDD" />
    <path xmlns="http://www.w3.org/2000/svg" fill="#999999"
        d="M61.88 152.73q.29 0 .51.22l1.38 1.49q-1.14 1.42-2.81 2.17-1.68.76-4.02.76-2.09 0-3.76-.72-1.67-.71-2.85-1.99-1.19-1.27-1.82-3.04-.63-1.77-.63-3.86 0-2.12.68-3.88.68-1.76 1.9-3.04 1.23-1.27 2.94-1.98 1.7-.71 3.77-.71 2.05 0 3.64.68 1.59.68 2.71 1.77l-1.17 1.62q-.1.16-.26.28-.17.11-.45.11-.2 0-.41-.11-.2-.11-.45-.27-.25-.16-.57-.36-.33-.19-.76-.36-.43-.16-.99-.27-.57-.11-1.31-.11-1.26 0-2.3.45-1.05.45-1.81 1.3-.75.85-1.17 2.08-.41 1.23-.41 2.8 0 1.59.45 2.82.45 1.24 1.21 2.08.77.85 1.81 1.3 1.04.44 2.24.44.71 0 1.29-.07.58-.08 1.06-.25.49-.17.93-.44.43-.26.86-.65.13-.12.28-.19.14-.07.29-.07Zm9.69-9.12q1.48 0 2.7.48 1.21.49 2.08 1.37.86.88 1.33 2.16.47 1.27.47 2.84 0 1.59-.47 2.86-.47 1.28-1.33 2.18-.87.89-2.08 1.37-1.22.49-2.7.49-1.5 0-2.72-.49-1.22-.48-2.08-1.37-.87-.9-1.34-2.18-.48-1.27-.48-2.86 0-1.57.48-2.84.47-1.28 1.34-2.16.86-.88 2.08-1.37 1.22-.48 2.72-.48Zm0 11.27q1.66 0 2.46-1.11.8-1.12.8-3.28 0-2.16-.8-3.29t-2.46-1.13q-1.69 0-2.5 1.14-.82 1.14-.82 3.28 0 2.15.82 3.27.81 1.12 2.5 1.12Zm18.52-11.06h2.54l-5.29 13.34h-2.91l-5.29-13.34h2.65q.36 0 .6.17t.32.43l2.57 7.12q.21.63.37 1.23.15.59.27 1.19.13-.6.29-1.19.15-.6.37-1.23l2.63-7.12q.09-.26.33-.43.23-.17.55-.17Zm6.78 5.14h6.06q0-.63-.18-1.18-.18-.55-.53-.97-.35-.41-.89-.65-.54-.25-1.25-.25-1.39 0-2.19.8-.8.79-1.02 2.25Zm8.19 1.93H96.8q.08 1.03.37 1.78.28.75.75 1.23.47.49 1.11.73.65.24 1.43.24.78 0 1.34-.18.57-.18.99-.4.42-.22.74-.41.32-.18.62-.18.4 0 .6.3l.92 1.17q-.53.62-1.2 1.05-.66.42-1.38.67-.72.26-1.47.36-.75.11-1.45.11-1.39 0-2.59-.47-1.19-.46-2.08-1.36-.88-.91-1.39-2.24-.51-1.33-.51-3.09 0-1.36.45-2.56.44-1.21 1.26-2.1.83-.89 2.02-1.41 1.19-.52 2.68-.52 1.26 0 2.33.41 1.07.4 1.83 1.17.77.78 1.21 1.9.43 1.13.43 2.57 0 .73-.15.98-.16.25-.6.25Zm5.99-6.26.2 1.51q.62-1.2 1.48-1.88.86-.69 2.03-.69.92 0 1.48.41l-.21 2.4q-.07.24-.19.33-.12.1-.33.1-.2 0-.58-.06-.38-.07-.75-.07-.53 0-.95.16-.41.15-.74.45-.33.29-.59.7-.25.42-.47.95v8.22h-3.21v-13.34h1.88q.5 0 .69.18.2.17.26.63Zm17.2-6.27v18.8h-3.51v-18.8h3.51Zm6.9 18.8h-3.21v-13.34h1.96q.63 0 .82.59l.21.98q.35-.39.74-.71.38-.33.81-.56.44-.23.94-.37.5-.14 1.1-.14 1.26 0 2.07.69.82.68 1.22 1.81.31-.66.78-1.14.47-.47 1.03-.77.55-.3 1.18-.44.64-.15 1.27-.15 1.11 0 1.97.34.85.34 1.44.99.58.65.89 1.59.3.93.3 2.14v8.49h-3.21v-8.49q0-1.27-.56-1.92-.55-.64-1.63-.64-.5 0-.92.17-.42.17-.74.49-.32.31-.5.8-.18.48-.18 1.1v8.49h-3.23v-8.49q0-1.34-.54-1.95-.54-.61-1.58-.61-.7 0-1.3.34-.61.35-1.13.95v9.76Zm25.61-3.45v-2.24q-1.39.06-2.34.24-.95.17-1.52.44-.57.28-.82.64-.24.37-.24.79 0 .85.5 1.21.5.37 1.3.37.99 0 1.71-.36t1.41-1.09Zm-6.78-7-.58-1.03q2.31-2.11 5.54-2.11 1.17 0 2.1.39.92.38 1.56 1.06.63.69.96 1.64.34.94.34 2.08v8.42h-1.46q-.46 0-.7-.14-.25-.13-.39-.55l-.29-.96q-.51.45-.99.8-.48.34-1 .58-.52.23-1.11.35-.59.13-1.31.13-.84 0-1.56-.23-.71-.23-1.23-.68-.52-.46-.81-1.13-.28-.68-.28-1.58 0-.5.17-1t.55-.96q.38-.45.99-.86.61-.4 1.51-.7.89-.3 2.07-.49 1.18-.19 2.7-.22v-.78q0-1.34-.57-1.99-.57-.64-1.65-.64-.78 0-1.29.18-.52.18-.91.41-.39.23-.71.41-.31.18-.7.18-.34 0-.58-.17-.23-.18-.37-.41Zm17.81 3.46q.59 0 1.04-.17.44-.16.73-.45.29-.28.44-.68.15-.41.15-.89 0-.99-.59-1.56-.59-.58-1.77-.58-1.19 0-1.78.58-.59.57-.59 1.56 0 .47.15.87.15.41.44.7.29.29.74.45.45.17 1.04.17Zm3.62 7.59q0-.39-.23-.64t-.64-.38q-.4-.14-.94-.2-.54-.07-1.14-.1l-1.25-.06q-.65-.03-1.26-.1-.53.29-.86.7-.33.4-.33.93 0 .36.17.66.18.31.56.53.39.22 1 .34.61.13 1.49.13.9 0 1.55-.14t1.07-.38q.42-.24.62-.57.19-.33.19-.72Zm-.63-13.48h3.83v1.19q0 .57-.69.7l-1.19.23q.27.68.27 1.5 0 .99-.4 1.79-.39.8-1.1 1.36-.7.56-1.65.86-.96.31-2.06.31-.39 0-.76-.04-.36-.04-.71-.1-.63.37-.63.84 0 .4.37.59.37.19.99.27.61.08 1.39.1.78.02 1.6.08.81.07 1.59.23t1.4.51q.61.35.98.96.37.6.37 1.55 0 .89-.44 1.72-.43.83-1.26 1.48-.82.65-2.03 1.05-1.2.39-2.73.39-1.51 0-2.63-.29-1.12-.29-1.86-.78-.74-.49-1.1-1.12-.37-.64-.37-1.33 0-.94.57-1.57.56-.63 1.55-1-.53-.28-.84-.73-.32-.46-.32-1.2 0-.3.12-.62.11-.31.32-.63.21-.31.54-.59.32-.28.77-.5-1.02-.54-1.6-1.45-.57-.91-.57-2.14 0-.98.39-1.78.4-.8 1.11-1.37.71-.56 1.67-.86.97-.3 2.12-.3.85 0 1.61.17.75.18 1.38.52Zm8.39 4.68h6.06q0-.63-.17-1.18-.18-.55-.53-.97-.35-.41-.89-.65-.54-.25-1.25-.25-1.4 0-2.2.8-.79.79-1.02 2.25Zm8.19 1.93h-8.25q.08 1.03.36 1.78.29.75.76 1.23.47.49 1.11.73.64.24 1.42.24.78 0 1.35-.18.56-.18.99-.4.42-.22.74-.41.32-.18.61-.18.41 0 .6.3l.93 1.17q-.54.62-1.2 1.05-.66.42-1.39.67-.72.26-1.46.36-.75.11-1.45.11-1.39 0-2.59-.47-1.2-.46-2.08-1.36-.88-.91-1.39-2.24-.51-1.33-.51-3.09 0-1.36.44-2.56.45-1.21 1.27-2.1.83-.89 2.02-1.41 1.19-.52 2.68-.52 1.26 0 2.33.41 1.06.4 1.83 1.17.77.78 1.2 1.9.44 1.13.44 2.57 0 .73-.16.98-.15.25-.6.25Z" />
</svg>